<svg width="135" height="137" viewBox="0 0 135 137" fill="none" xmlns="http://www.w3.org/2000/svg">
<g id="Box" filter="url(#filter0_b_1_1389)">
<path d="M131.58 115.704C133.243 114.687 134.257 112.878 134.257 110.929L134.257 5.59725C134.257 2.50598 131.751 1.90735e-06 128.659 1.90735e-06L5.63093 1.90735e-06C2.53965 1.90735e-06 0.0336745 2.50598 0.0336745 5.59726L0.0336745 131.403C0.0336745 134.494 2.53964 137 5.63092 137L95.1929 137C96.2237 137 97.2345 136.715 98.1139 136.177L131.58 115.704Z" fill="white" fill-opacity="0.05"/>
<path d="M134.082 5.59726L134.082 110.929C134.082 112.817 133.1 114.57 131.489 115.555L98.0226 136.028C97.1707 136.549 96.1915 136.825 95.1929 136.825L5.63092 136.825C2.63625 136.825 0.208588 134.397 0.208588 131.403L0.208588 5.59726C0.208588 2.60258 2.63625 0.174911 5.63092 0.174911L128.659 0.174911C131.654 0.174911 134.082 2.60258 134.082 5.59726Z" stroke="url(#paint0_linear_1_1389)" stroke-opacity="0.7" stroke-width="0.349828"/>
</g>
<defs>
<filter id="filter0_b_1_1389" x="-3.46459" y="-3.49828" width="141.22" height="143.997" filterUnits="userSpaceOnUse" color-interpolation-filters="sRGB">
<feFlood flood-opacity="0" result="BackgroundImageFix"/>
<feGaussianBlur in="BackgroundImageFix" stdDeviation="1.74914"/>
<feComposite in2="SourceAlpha" operator="in" result="effect1_backgroundBlur_1_1389"/>
<feBlend mode="normal" in="SourceGraphic" in2="effect1_backgroundBlur_1_1389" result="shape"/>
</filter>
<linearGradient id="paint0_linear_1_1389" x1="-11.7589" y1="-4.72845" x2="73.6698" y2="151.506" gradientUnits="userSpaceOnUse">
<stop stop-color="#84F729"/>
<stop offset="1" stop-color="#15BFFD"/>
</linearGradient>
</defs>
</svg>
