<svg width="177" height="46" viewBox="0 0 177 46" fill="none" xmlns="http://www.w3.org/2000/svg">
<g id="Subtract">
<path d="M177 4.91667C177 2.20127 174.799 0 172.083 0H4.91667C2.20127 0 0 2.20126 0 4.91666V41.0833C0 43.7987 2.20127 46 4.91667 46H152.524C153.594 46 154.635 45.651 155.488 45.006L175.048 30.2254C176.277 29.2962 177 27.8441 177 26.3028V4.91667Z" fill="white" fill-opacity="0.05"/>
<path d="M4.91667 0.245833H172.083C174.663 0.245833 176.754 2.33704 176.754 4.91667V26.3028C176.754 27.767 176.068 29.1465 174.899 30.0293L155.34 44.8098C154.529 45.4226 153.54 45.7542 152.524 45.7542H4.91667C2.33704 45.7542 0.245833 43.663 0.245833 41.0833V4.91666C0.245833 2.33703 2.33704 0.245833 4.91667 0.245833Z" stroke="url(#paint0_linear_1_1432)" stroke-opacity="0.7" stroke-width="0.491667"/>
</g>
<defs>
<linearGradient id="paint0_linear_1_1432" x1="192.551" y1="47.5877" x2="183.244" y2="-19.2594" gradientUnits="userSpaceOnUse">
<stop stop-color="#84F729"/>
<stop offset="1" stop-color="#15BFFD"/>
</linearGradient>
</defs>
</svg>
