<svg width="23" height="24" viewBox="0 0 23 24" fill="none" xmlns="http://www.w3.org/2000/svg">
<g id="icon" clip-path="url(#clip0_1_1283)">
<path id="Vector" d="M6.49986 3.93637C7.98407 2.69919 9.82991 2.02649 11.7318 2.02964C13.7107 2.02964 15.5295 2.74273 16.9637 3.93637L18.3168 2.52861L19.6336 3.89858L18.2805 5.30634C19.4696 6.85046 20.1163 8.77081 20.1132 10.7494V11.7183H3.35029V10.7494C3.35029 8.69058 4.0357 6.79839 5.18303 5.30634L3.82989 3.89955L5.14671 2.52958L6.49986 3.93734V3.93637ZM3.35029 13.656H20.1132V20.4381C20.1132 20.695 20.0151 20.9415 19.8405 21.1232C19.6658 21.3049 19.4289 21.4069 19.1819 21.4069H4.28156C4.03457 21.4069 3.7977 21.3049 3.62305 21.1232C3.4484 20.9415 3.35029 20.695 3.35029 20.4381V13.656ZM8.93793 8.81169C9.18492 8.81169 9.42179 8.70962 9.59644 8.52792C9.77109 8.34622 9.8692 8.09979 9.8692 7.84283C9.8692 7.58587 9.77109 7.33944 9.59644 7.15774C9.42179 6.97604 9.18492 6.87396 8.93793 6.87396C8.69094 6.87396 8.45407 6.97604 8.27942 7.15774C8.10477 7.33944 8.00666 7.58587 8.00666 7.84283C8.00666 8.09979 8.10477 8.34622 8.27942 8.52792C8.45407 8.70962 8.69094 8.81169 8.93793 8.81169V8.81169ZM14.5256 8.81169C14.7726 8.81169 15.0094 8.70962 15.1841 8.52792C15.3587 8.34622 15.4568 8.09979 15.4568 7.84283C15.4568 7.58587 15.3587 7.33944 15.1841 7.15774C15.0094 6.97604 14.7726 6.87396 14.5256 6.87396C14.2786 6.87396 14.0417 6.97604 13.8671 7.15774C13.6924 7.33944 13.5943 7.58587 13.5943 7.84283C13.5943 8.09979 13.6924 8.34622 13.8671 8.52792C14.0417 8.70962 14.2786 8.81169 14.5256 8.81169V8.81169Z" fill="url(#paint0_linear_1_1283)"/>
</g>
<defs>
<linearGradient id="paint0_linear_1_1283" x1="1.7726" y1="-1.81242" x2="22.471" y2="1.17147" gradientUnits="userSpaceOnUse">
<stop stop-color="#9DFE00"/>
<stop offset="1" stop-color="#14D9E6"/>
</linearGradient>
<clipPath id="clip0_1_1283">
<rect width="22.3506" height="23.2527" fill="white" transform="translate(0.556458 0.0919037)"/>
</clipPath>
</defs>
</svg>
