<svg width="23" height="24" viewBox="0 0 23 24" fill="none" xmlns="http://www.w3.org/2000/svg">
<g id="icon" clip-path="url(#clip0_1_1304)">
<path id="Vector" d="M10.3428 17.4715C8.49753 17.2228 6.81086 16.2392 5.62565 14.7207C4.44044 13.2021 3.84563 11.2625 3.96211 9.29617C4.0786 7.3298 4.89764 5.48419 6.25276 4.13446C7.60789 2.78473 9.39741 2.03216 11.2576 2.02972C13.1201 2.02825 14.913 2.77898 16.271 4.12894C17.6291 5.47889 18.4501 7.32649 18.5667 9.29527C18.6833 11.264 18.0868 13.2058 16.8987 14.725C15.7107 16.2442 14.0204 17.2264 12.1724 17.4715V19.4809C15.782 19.57 18.5756 20.1814 18.5756 20.9226C18.5756 21.7248 15.299 22.3759 11.2576 22.3759C7.21623 22.3759 3.93959 21.7248 3.93959 20.9226C3.93959 20.1814 6.73324 19.57 10.3428 19.4809V17.4715V17.4715ZM11.2576 11.7184C11.7428 11.7184 12.2082 11.5142 12.5513 11.1508C12.8944 10.7874 13.0871 10.2946 13.0871 9.78063C13.0871 9.26671 12.8944 8.77385 12.5513 8.41045C12.2082 8.04706 11.7428 7.8429 11.2576 7.8429C10.7724 7.8429 10.307 8.04706 9.96395 8.41045C9.62085 8.77385 9.4281 9.26671 9.4281 9.78063C9.4281 10.2946 9.62085 10.7874 9.96395 11.1508C10.307 11.5142 10.7724 11.7184 11.2576 11.7184Z" fill="url(#paint0_linear_1_1304)"/>
</g>
<defs>
<linearGradient id="paint0_linear_1_1304" x1="2.56157" y1="-2.00444" x2="20.7545" y2="0.177261" gradientUnits="userSpaceOnUse">
<stop stop-color="#9DFE00"/>
<stop offset="1" stop-color="#14D9E6"/>
</linearGradient>
<clipPath id="clip0_1_1304">
<rect width="21.954" height="23.2527" fill="white" transform="translate(0.280396 0.0920525)"/>
</clipPath>
</defs>
</svg>
