<svg width="25" height="24" viewBox="0 0 25 24" fill="none" xmlns="http://www.w3.org/2000/svg">
<path d="M19.9461 4.92892C18.0573 3.04019 15.5461 2 12.875 2C10.2039 2 7.69266 3.04019 5.80392 4.92892C3.91519 6.81766 2.875 9.32895 2.875 12C2.875 14.6711 3.91519 17.1823 5.80392 19.0711C7.69266 20.9598 10.2039 22 12.875 22C15.5461 22 18.0573 20.9598 19.9461 19.0711C21.8348 17.1823 22.875 14.6711 22.875 12C22.875 9.32895 21.8348 6.81766 19.9461 4.92892ZM7.21506 18.7694C7.54526 15.9282 9.98804 13.7346 12.875 13.7346C14.3969 13.7346 15.828 14.3276 16.9045 15.4039C17.814 16.3135 18.3875 17.5011 18.5351 18.7693C17.0016 20.0536 15.0271 20.8281 12.875 20.8281C10.7229 20.8281 8.74857 20.0537 7.21506 18.7694ZM12.875 12.5276C11.2003 12.5276 9.83774 11.165 9.83774 9.49039C9.83774 7.81558 11.2003 6.45312 12.875 6.45312C14.5497 6.45312 15.9123 7.81558 15.9123 9.49039C15.9123 11.165 14.5497 12.5276 12.875 12.5276ZM19.5437 17.7787C19.2451 16.5747 18.6224 15.4647 17.7331 14.5754C17.0129 13.8552 16.1608 13.3148 15.2316 12.9763C16.3487 12.2187 17.0841 10.9388 17.0841 9.49039C17.0841 7.16953 15.1959 5.28125 12.875 5.28125C10.5541 5.28125 8.66586 7.16953 8.66586 9.49039C8.66586 10.9395 9.40195 12.2199 10.52 12.9773C9.66501 13.2889 8.87384 13.7706 8.19315 14.4048C7.20743 15.3228 6.52292 16.4933 6.20554 17.7777C4.86139 16.2282 4.04688 14.2075 4.04688 12C4.04688 7.13214 8.00714 3.17188 12.875 3.17188C17.7429 3.17188 21.7031 7.13214 21.7031 12C21.7031 14.2079 20.8883 16.2291 19.5437 17.7787Z" fill="#E3E3E3"/>
</svg>
