<svg width="22" height="20" viewBox="0 0 22 20" fill="none" xmlns="http://www.w3.org/2000/svg">
<g id="icon" clip-path="url(#clip0_1_1295)">
<path id="Vector" d="M10.9763 18.3333C5.92414 18.3333 1.8288 14.6025 1.8288 10C1.8288 5.39751 5.92414 1.66668 10.9763 1.66668C16.0285 1.66668 20.1238 5.39751 20.1238 10C20.1238 14.6025 16.0285 18.3333 10.9763 18.3333ZM16.7895 13.2933V13.2058C16.7895 12.4375 16.7895 12.0867 16.1931 11.7758C16.0014 11.6768 15.8045 11.5865 15.6031 11.505C15.2674 11.3658 15.0451 11.275 14.7451 10.875C14.7093 10.8275 14.6739 10.7797 14.639 10.7317C14.3234 10.2942 14.0956 9.97918 13.2284 10.1042C11.5224 10.3508 11.3962 10.6242 11.3212 11.0858L11.3093 11.1617C11.1986 11.8367 11.1785 12.0633 11.4877 12.3592C12.6448 13.465 13.3382 14.2625 13.5486 14.7292C13.651 14.9567 13.9145 15.6458 13.7334 16.3275C14.8437 15.9246 15.832 15.2854 16.6157 14.4633C16.7164 14.1517 16.7895 13.7633 16.7895 13.2933V13.2933ZM10.9763 3.19418C8.85683 3.19418 6.94225 3.99918 5.58293 5.29085C5.74485 5.39335 5.88572 5.53751 5.98268 5.73585C6.16929 6.11668 6.16929 6.50918 6.16929 6.85668C6.16929 7.13001 6.16929 7.39001 6.26534 7.57751C6.39706 7.83418 6.96604 7.94418 7.46824 8.03918C7.64844 8.07418 7.83322 8.10918 8.00154 8.15168C8.4644 8.26834 8.82298 8.64751 9.1093 8.95168C9.22822 9.07751 9.40476 9.26334 9.49349 9.31001C9.53923 9.28001 9.68651 9.13418 9.75877 8.89501C9.81549 8.71168 9.79902 8.55001 9.71761 8.46168C9.20535 7.91168 9.2337 6.85335 9.39196 6.46251C9.64077 5.84668 10.4183 5.89251 10.9873 5.92585C11.1995 5.93835 11.3989 5.95085 11.5489 5.93335C12.1179 5.86835 12.2935 5.07918 12.417 4.92501C12.6841 4.59168 13.5019 4.08918 14.0087 3.77918C13.0542 3.39251 12.021 3.19319 10.9763 3.19418V3.19418Z" fill="url(#paint0_linear_1_1295)"/>
</g>
<defs>
<linearGradient id="paint0_linear_1_1295" x1="0.106913" y1="-1.63792" x2="22.4199" y2="2.44368" gradientUnits="userSpaceOnUse">
<stop stop-color="#9DFE00"/>
<stop offset="1" stop-color="#14D9E6"/>
</linearGradient>
<clipPath id="clip0_1_1295">
<rect width="21.954" height="20" fill="white"/>
</clipPath>
</defs>
</svg>
