<svg width="25" height="24" viewBox="0 0 25 24" fill="none" xmlns="http://www.w3.org/2000/svg">
<path d="M22.0538 5.87097H21.086V4.90323C21.086 4.36959 20.6519 3.93548 20.1183 3.93548H19.1505V2.96774C19.1505 2.43415 18.7164 2 18.1828 2H5.83867C5.30503 2 4.87092 2.43411 4.87092 2.96774V3.93548H3.90323C3.36959 3.93548 2.93548 4.36959 2.93548 4.90323V5.87097H1.96774C1.43411 5.87097 1 6.30508 1 6.83871V21.0323C1 21.5658 1.43411 22 1.96774 22H19.1505V21.3548H1.96774C1.78989 21.3548 1.64516 21.2102 1.64516 21.0323V6.83871C1.64516 6.66086 1.78989 6.51613 1.96774 6.51613H22.0538C22.2316 6.51613 22.3763 6.66086 22.3763 6.83871V21.0323C22.3763 21.2101 22.2316 21.3548 22.0538 21.3548H21.086V22H22.0538C22.5874 22 23.0215 21.5659 23.0215 21.0323V6.83871C23.0215 6.30508 22.5874 5.87097 22.0538 5.87097ZM3.58065 4.90323C3.58065 4.72538 3.72533 4.58065 3.90323 4.58065H6.48383V3.93548H5.51609V2.96774C5.51609 2.78989 5.66077 2.64516 5.83867 2.64516H18.1828C18.3607 2.64516 18.5054 2.78985 18.5054 2.96774V3.93548H7.12899V4.58065H20.1183C20.2962 4.58065 20.4409 4.72538 20.4409 4.90323V5.87097H3.58065V4.90323Z" fill="white"/>
<path d="M19.7957 21.3548H20.4408V21.9999H19.7957V21.3548Z" fill="white"/>
<path d="M10.418 16.4017L14.6837 13.9641L10.418 11.5265V16.4017ZM11.0631 12.6382L13.3834 13.9641L11.0631 15.2899V12.6382Z" fill="white"/>
<path d="M7.17206 13.9354C7.17206 16.6035 9.34268 18.7741 12.0108 18.7741C14.6789 18.7741 16.8495 16.6035 16.8495 13.9354C16.8495 11.2673 14.6789 9.09673 12.0108 9.09673C9.34268 9.09673 7.17206 11.2673 7.17206 13.9354ZM16.2043 13.9354C16.2043 16.2478 14.3231 18.129 12.0108 18.129C9.69842 18.129 7.81722 16.2477 7.81722 13.9354C7.81722 11.6231 9.69842 9.74189 12.0108 9.74189C14.3231 9.74189 16.2043 11.6231 16.2043 13.9354Z" fill="white"/>
<path d="M21.086 7.16124H21.7312V7.8064H21.086V7.16124Z" fill="white"/>
<path d="M21.086 8.45161H21.7312V9.09678H21.086V8.45161Z" fill="white"/>
</svg>
