<svg width="15" height="16" viewBox="0 0 15 16" fill="none" xmlns="http://www.w3.org/2000/svg">
<g id="Favourite">
<rect width="15" height="16" rx="2" fill="black" fill-opacity="0.4"/>
<path id="Vector" d="M13.0957 6.53466C13.022 6.2811 12.82 6.10101 12.5809 6.07703L9.33386 5.74887L8.04989 2.40383C7.95522 2.15869 7.7396 2 7.50005 2C7.26049 2 7.04487 2.15869 6.9502 2.40441L5.66623 5.74887L2.41866 6.07703C2.18005 6.10159 1.97851 6.2811 1.90444 6.53466C1.83037 6.78821 1.89877 7.06632 2.07928 7.24163L4.53367 9.6375L3.80993 13.186C3.75697 13.4469 3.84795 13.7166 4.04245 13.8731C4.14699 13.9572 4.2693 14 4.39264 14C4.49899 14 4.60448 13.9681 4.69915 13.905L7.50005 12.0418L10.2999 13.905C10.5048 14.0422 10.7631 14.0297 10.9571 13.8731C11.1517 13.7162 11.2426 13.4464 11.1897 13.186L10.4659 9.6375L12.9203 7.24211C13.1008 7.06632 13.1697 6.78869 13.0957 6.53466Z" fill="#FFC107"/>
</g>
</svg>
