<svg width="25" height="24" viewBox="0 0 25 24" fill="none" xmlns="http://www.w3.org/2000/svg">
<path d="M22.4192 10.699C22.4186 10.6986 22.4182 10.698 22.4177 10.6975L14.2593 2.5394C13.9115 2.1915 13.4492 2 12.9574 2C12.4656 2 12.0033 2.1915 11.6554 2.5394L3.50124 10.6934C3.49849 10.6961 3.4956 10.699 3.493 10.7018C2.77889 11.42 2.78011 12.5853 3.49651 13.3017C3.82381 13.6292 4.25594 13.8187 4.71813 13.8387C4.73705 13.8405 4.75597 13.8414 4.77504 13.8414H5.10006V19.8452C5.10006 21.0334 6.06685 22 7.25506 22H10.4469C10.7705 22 11.0328 21.7375 11.0328 21.4141V16.707C11.0328 16.1649 11.474 15.7239 12.0161 15.7239H13.8987C14.4409 15.7239 14.8819 16.1649 14.8819 16.707V21.4141C14.8819 21.7375 15.1442 22 15.4678 22H18.6596C19.848 22 20.8146 21.0334 20.8146 19.8452V13.8414H21.1161C21.6078 13.8414 22.0701 13.6499 22.4182 13.3019C23.1353 12.5844 23.1356 11.417 22.4192 10.699ZM21.5895 12.4733C21.463 12.5998 21.2948 12.6696 21.1161 12.6696H20.2287C19.905 12.6696 19.6427 12.9319 19.6427 13.2555V19.8452C19.6427 20.3871 19.2018 20.8281 18.6596 20.8281H16.0537V16.707C16.0537 15.5188 15.0871 14.552 13.8987 14.552H12.0161C10.8277 14.552 9.86095 15.5188 9.86095 16.707V20.8281H7.25506C6.71306 20.8281 6.27193 20.3871 6.27193 19.8452V13.2555C6.27193 12.9319 6.00963 12.6696 5.68599 12.6696H4.8138C4.80465 12.6689 4.79564 12.6685 4.78634 12.6683C4.61178 12.6653 4.44805 12.596 4.32537 12.4732C4.06444 12.2122 4.06444 11.7876 4.32537 11.5265C4.32552 11.5265 4.32552 11.5264 4.32567 11.5262L4.32613 11.5258L12.4842 3.36795C12.6106 3.24146 12.7786 3.17188 12.9574 3.17188C13.1361 3.17188 13.3041 3.24146 13.4306 3.36795L21.5869 11.5241C21.5881 11.5253 21.5895 11.5265 21.5907 11.5277C21.8502 11.7891 21.8498 12.2129 21.5895 12.4733Z" fill="white"/>
</svg>
