<svg width="25" height="24" viewBox="0 0 25 24" fill="none" xmlns="http://www.w3.org/2000/svg">
<path d="M20.8043 7.3725L20.7968 7.3605C22.1933 5.0505 22.4888 3.5175 21.675 2.7C20.8613 1.8825 19.3193 2.18175 17.0018 3.58425C15.1796 2.58055 13.0808 2.19589 11.0211 2.48818C8.96146 2.78048 7.05248 3.73389 5.58154 5.20492C4.1106 6.67595 3.15729 8.58498 2.86511 10.6447C2.57294 12.7043 2.95772 14.8032 3.96152 16.6252C2.55827 18.9435 2.25977 20.481 3.07502 21.3C3.23373 21.4532 3.42199 21.5724 3.62831 21.6504C3.83462 21.7284 4.05467 21.7636 4.27502 21.7537C5.52395 21.6114 6.71624 21.1541 7.74002 20.4247L7.74827 20.43L7.76327 20.4202C9.58453 21.4185 11.6804 21.7991 13.7364 21.5051C15.7923 21.2111 17.6975 20.2583 19.166 18.7896C20.6345 17.321 21.5871 15.4157 21.8808 13.3597C22.1746 11.3037 21.7937 9.20789 20.7953 7.38675L20.8043 7.3725ZM20.6025 3.75C20.6775 3.8835 20.6355 4.56075 19.8593 5.988C19.4226 5.44554 18.9287 4.9517 18.3863 4.515C19.8135 3.73875 20.487 3.696 20.6025 3.75ZM12.375 3.8925C13.6809 3.8937 14.9671 4.21 16.1246 4.81453C17.2821 5.41907 18.2767 6.29398 19.0238 7.365C17.5036 9.56673 15.7779 11.6192 13.8698 13.4947C11.9943 15.4026 9.94211 17.1284 7.74077 18.6487C6.32475 17.6625 5.26046 16.25 4.70282 14.617C4.14517 12.984 4.12327 11.2156 4.64031 9.56921C5.15736 7.92286 6.18635 6.4845 7.57751 5.46349C8.96867 4.44247 10.6494 3.89211 12.375 3.8925ZM4.14752 20.25C4.07252 20.1165 4.11452 19.4392 4.89077 18.012C5.32727 18.5546 5.82114 19.0485 6.36377 19.485C4.93652 20.2612 4.26227 20.3032 4.14752 20.25ZM12.375 20.1075C11.2859 20.1061 10.2083 19.8844 9.20702 19.4557C11.2467 17.9829 13.161 16.3438 14.9303 14.5552C16.719 12.7861 18.3581 10.8718 19.8308 8.832C20.3576 10.064 20.5704 11.4076 20.4499 12.7422C20.3293 14.0767 19.8793 15.3604 19.1403 16.4782C18.4012 17.5959 17.3962 18.5126 16.2154 19.1461C15.0346 19.7795 13.715 20.1099 12.375 20.1075Z" fill="#E3E3E3"/>
</svg>
