<svg width="20" height="20" viewBox="0 0 20 20" fill="none" xmlns="http://www.w3.org/2000/svg">
<g id="icon" clip-path="url(#clip0_1_1583)">
<path id="Vector" d="M9.16672 1.66678C13.3067 1.66678 16.6667 5.02678 16.6667 9.16678C16.6667 13.3068 13.3067 16.6668 9.16672 16.6668C5.02672 16.6668 1.66672 13.3068 1.66672 9.16678C1.66672 5.02678 5.02672 1.66678 9.16672 1.66678ZM9.16672 15.0001C12.3892 15.0001 15.0001 12.3893 15.0001 9.16678C15.0001 5.94345 12.3892 3.33345 9.16672 3.33345C5.94338 3.33345 3.33338 5.94345 3.33338 9.16678C3.33338 12.3893 5.94338 15.0001 9.16672 15.0001ZM16.2376 15.0593L18.5951 17.4159L17.4159 18.5951L15.0592 16.2376L16.2376 15.0593V15.0593Z" fill="white"/>
</g>
<defs>
<clipPath id="clip0_1_1583">
<rect width="20" height="20" fill="white"/>
</clipPath>
</defs>
</svg>
