<svg width="16" height="15" viewBox="0 0 16 15" fill="none" xmlns="http://www.w3.org/2000/svg">
<g id="Frame" clip-path="url(#clip0_1_1298)">
<path id="Vector" d="M6.64476 3.72512V4.88512H3.46143V11.2651H10.4648V8.36512H11.7381V11.8451C11.7381 11.9989 11.671 12.1465 11.5516 12.2552C11.4322 12.364 11.2703 12.4251 11.1014 12.4251H2.82476C2.65591 12.4251 2.49397 12.364 2.37457 12.2552C2.25517 12.1465 2.1881 11.9989 2.1881 11.8451V4.30512C2.1881 4.15129 2.25517 4.00377 2.37457 3.895C2.49397 3.78623 2.65591 3.72512 2.82476 3.72512H6.64476ZM13.6481 1.98512V7.20512L11.2326 5.00518L7.41322 8.48518L6.51297 7.66506L10.3323 4.18506L7.91809 1.98512H13.6481Z" fill="white"/>
</g>
<defs>
<clipPath id="clip0_1_1298">
<rect width="15.28" height="13.92" fill="white" transform="translate(0.277832 0.245117)"/>
</clipPath>
</defs>
</svg>
