<svg width="15" height="16" viewBox="0 0 15 16" fill="none" xmlns="http://www.w3.org/2000/svg">
<g id="Favourite">
<rect width="15" height="16" rx="2" fill="black" fill-opacity="0.1"/>
<path id="Vector" d="M4.39299 14C4.26973 14 4.14733 13.9572 4.04287 13.8731C3.84829 13.7162 3.75739 13.4464 3.81035 13.186L4.5341 9.6375L2.07962 7.24163C1.8992 7.06632 1.83028 6.78869 1.90435 6.53466C1.97842 6.2811 2.17996 6.10159 2.41857 6.07703L5.66614 5.74887L6.95012 2.40441C7.04479 2.15869 7.2604 2 7.49996 2C7.73952 2 7.95513 2.15869 8.04981 2.40383L9.33378 5.74887L12.5808 6.07703C12.82 6.10101 13.0215 6.2811 13.0956 6.53466C13.1696 6.78821 13.1012 7.06632 12.9207 7.24163L10.4663 9.63702L11.19 13.1855C11.243 13.4464 11.1521 13.7162 10.9576 13.8726C10.7635 14.0291 10.5047 14.0412 10.3003 13.9045L7.49996 12.0418L4.69958 13.9055C4.60491 13.9681 4.49942 14 4.39299 14ZM7.49996 11.2394C7.60639 11.2394 7.7118 11.2712 7.80656 11.3338L10.4494 13.0932L9.76638 9.74393C9.71762 9.50557 9.79032 9.25669 9.95581 9.09543L12.2734 6.83311L9.20718 6.52319C8.98641 6.50074 8.79655 6.34626 8.71029 6.11983L7.49996 2.96368L6.28817 6.12031C6.20286 6.34521 6.01299 6.49969 5.79275 6.52214L2.72611 6.83206L5.0436 9.09437C5.2096 9.25612 5.28221 9.50451 5.23303 9.74345L4.55049 13.0926L7.19337 11.3338C7.28804 11.2712 7.39353 11.2394 7.49996 11.2394ZM5.64134 5.81354C5.64134 5.81354 5.64134 5.81412 5.64082 5.81459L5.64134 5.81354ZM9.35764 5.81202L9.35816 5.81307C9.35816 5.81249 9.35816 5.81249 9.35764 5.81202Z" fill="#191D29"/>
</g>
</svg>
